<svg width="301px" height="301px" viewBox="0 0 301 301" version="1.1" xmlns="http://www.w3.org/2000/svg" xmlns:xlink="http://www.w3.org/1999/xlink">
    <g id="Page-1" stroke="none" stroke-width="1" fill="none" fill-rule="evenodd">
        <g id="Group" transform="translate(150.279604, 150.268267) scale(-1, 1) rotate(-180.000000) translate(-150.279604, -150.268267) translate(0.279604, 0.266748)" fill-rule="nonzero">
            <ellipse id="Oval" fill="#FFFFFF" cx="148.346472" cy="153.305269" rx="107.567031" ry="94.7972018"></ellipse>
            <path d="M141.315555,299.752674 C104.59854,297.649408 70.0749317,282.17538 43.964387,256.034788 C9.59101178,221.661413 -5.91306306,173.316342 2.04930096,125.211645 C9.14031193,82.2749727 35.0705766,44.1457653 72.6889908,21.4304929 C105.620127,1.56965284 145.31176,-4.83028504 183.080407,3.6729188 C239.387842,16.3826546 283.616521,60.6113332 296.326256,116.918768 C301.283955,138.942967 301.223861,161.868566 296.145977,183.922812 C289.866225,211.115037 275.98467,236.113855 256.03369,256.034788 C225.686567,286.411958 184.22218,302.2165 141.315555,299.752674 Z M161.266535,208.260604 C173.074871,205.285985 179.655089,198.705767 182.058821,187.558458 C182.629708,184.884305 182.509521,176.831801 181.848495,173.136062 C181.548028,171.483496 181.247561,169.770837 181.187468,169.350184 C181.037235,168.629064 181.247561,168.448784 183.410921,167.276964 C186.47568,165.654445 190.562025,162.709873 193.416457,160.12586 L195.669957,158.052641 L197.172289,158.954041 C203.782554,162.920199 212.616271,165.113605 218.655649,164.332392 C224.064047,163.611272 228.000159,161.628193 231.876178,157.662034 C238.696769,150.69121 239.958729,143.449966 235.752197,135.187135 C234.970984,133.594662 233.588837,131.341163 232.717484,130.169343 C230.614218,127.375004 226.01708,122.807913 222.862181,120.374133 C221.449988,119.292454 211.805011,112.682189 201.408868,105.711365 C185.814653,95.2250817 182.449428,93.0917691 182.118914,93.4222823 C181.908588,93.6326089 177.131169,99.9123601 171.482398,107.333884 C165.863673,114.785455 161.146348,120.884927 161.026161,120.914973 C160.905975,120.975066 160.455275,120.13376 160.004575,119.112174 C159.133222,117.038954 149.518292,96.2767147 149.368059,96.0964347 C149.187779,95.8861081 91.9188511,118.721567 89.3949319,120.013573 C77.9772024,125.872672 70.135025,134.736435 67.2805926,145.042438 C66.5594728,147.596404 66.4693329,148.437711 66.4693329,152.854569 C66.4693329,158.323061 66.8298928,160.726793 68.4824589,165.564305 C71.5171712,174.668442 76.8354294,179.866514 86.149893,182.841133 C93.6315105,185.244865 104.989147,185.365052 115.38529,183.171646 C117.037856,182.841133 118.389956,182.600759 118.420002,182.660853 C118.480096,182.720946 119.081029,183.832672 119.802148,185.154725 C123.257514,191.614756 129.266845,198.705767 134.52501,202.551739 C139.632942,206.307571 144.350267,208.290651 150.299505,209.162004 C152.613098,209.492517 158.201776,209.041817 161.266535,208.260604 Z" id="Shape" fill="#E02020"></path>
            <path d="M148.196239,198.495441 C138.791635,197.113294 130.348525,188.640137 124.7298,174.938862 C124.158914,173.526669 123.588027,172.565176 123.347654,172.595223 C123.137327,172.595223 121.244388,173.106016 119.171169,173.676902 C100.271822,178.935067 85.9095197,176.020542 81.0419614,165.924865 C77.8870624,159.374694 76.9556161,151.68275 78.6382288,145.703465 C80.6814015,138.432174 86.3602196,132.002189 94.4427702,127.855751 C97.5676225,126.233231 145.011293,107.393978 145.461993,107.574258 C145.642273,107.664398 146.994373,110.33855 148.466659,113.523496 C149.968992,116.738488 152.132351,121.39572 153.334217,123.859546 L155.527623,128.366544 L154.92669,129.267944 C153.784917,130.980603 151.561465,135.577742 150.840345,137.681008 C147.384979,147.776684 149.277919,157.031054 156.27879,164.092019 C160.936021,168.809344 164.481527,170.582097 169.769739,170.82247 C173.645757,171.00275 173.405384,170.582097 173.405384,176.891895 C173.405384,181.7895 172.894591,184.343465 171.151885,187.798831 C169.919972,190.202563 166.284326,193.838209 163.670267,195.310495 C161.146348,196.722688 156.909769,198.104834 153.965197,198.495441 C151.321091,198.856001 150.750205,198.856001 148.196239,198.495441 Z" id="Path" fill="#E02020"></path>
            <path d="M169.679599,163.190619 C167.215773,162.529593 165.593253,161.447913 162.588588,158.443247 C158.141682,153.966296 156.54921,150.120323 156.81963,144.291272 C156.999909,140.655627 157.991449,137.410588 160.034622,133.925176 C160.785788,132.603123 166.43456,124.941225 172.534031,116.918768 C178.663549,108.866264 183.801527,102.075719 183.981807,101.835346 C184.252227,101.44474 186.686006,102.977119 198.854902,111.119763 C206.87736,116.468068 214.50921,121.545953 215.801217,122.417306 C223.643394,127.555284 229.322212,134.736435 230.043332,140.415253 C230.584172,144.711925 229.171979,148.708131 225.866847,152.313729 C220.879102,157.782221 215.170237,159.13432 207.538386,156.700541 C204.834187,155.829188 200.207002,153.425456 197.442709,151.442376 L195.09907,149.759764 L193.206131,151.893076 C191.072818,154.266762 187.256893,157.571894 184.552694,159.374694 C179.054155,163.070432 174.006317,164.362439 169.679599,163.190619 Z" id="Path" fill="#E02020"></path>
        </g>
    </g>
</svg>