
<svg width="300px" height="300px" viewBox="0 0 300 300" version="1.1" xmlns="http://www.w3.org/2000/svg" xmlns:xlink="http://www.w3.org/1999/xlink"><g><path d="M0,149.520767 C0,67.0926517 67.3076922,0 150,0 C232.692308,0 300,67.0926517 300,149.520767 C300,232.907349 232.692308,300 150,300 C126.923077,300 105.769231,295.207668 86.5384615,285.623004 C96.153846,280.830671 104.807692,276.996806 113.461538,273.16294 C147.115385,259.744409 154.807692,282.747604 186.538462,224.281151 C265.384615,78.5942492 170.192308,-4.79233229 138.461538,53.6741217 C125,78.5942492 100,110.223642 102.884615,140.894569 C105.769231,168.690096 136.538462,180.191694 150.961538,177.316294 C166.346154,174.440895 191.346154,177.316294 146.153846,217.571886 C130.769231,230.990416 99.0384614,253.993611 69.2307692,276.038339 C27.8846154,250.159744 0,203.194889 0,149.520767 Z" fill="#888888"></path></g></svg>
