<?xml version="1.0" encoding="UTF-8"?><svg width="300px" height="300px" viewBox="0 0 300 300" version="1.1" xmlns="http://www.w3.org/2000/svg" xmlns:xlink="http://www.w3.org/1999/xlink"><path d="M0,150 C0,183.3 11.1,214.2 29.4,239.1 C39,230.7 49.5,221.1 58.5,212.7 C64.8,207 73.2,199.8 79.2,194.1 L77.1,217.8 C65.4,228.6 52.5,240.9 40.2,252.3 C47.1,259.2 54.3,265.8 62.1,271.5 C76.5,259.8 95.7,243.6 112.5,236.7 C121.2,233.1 130.5,232.2 135.6,233.7 C141.3,235.2 146.4,238.8 143.7,245.4 C141.9,249.9 137.7,258.3 132,258.3 C131.4,258.3 129.9,258.3 129,258.3 C126,257.4 125.1,254.4 120.6,255.3 C112.5,256.5 103.8,259.8 95.4,265.2 C88.8,269.4 81.3,274.8 75,279.9 C96.9,292.8 122.7,300 150,300 C232.8,300 300,232.8 300,150 C300,67.2 232.8,0 150,0 C67.2,0 0,67.2 0,150 Z M79.2,190.5 C78.9,189.6 78.6,189 79.5,188.1 C84.3,183.3 90.3,178.8 96.9,173.1 C99.6,177.3 105.6,181.8 109.8,186.3 C112.2,188.7 111.3,192.6 107.4,196.2 C105,198.6 102.6,200.7 99.3,202.5 C96.6,204.3 93.9,204 91.5,202.2 C87.6,198.6 82.8,195.3 79.2,190.5 Z M109.2,234.3 C109.5,233.1 111,229.2 111.6,228.6 C117,219.9 123.3,211.8 134.1,206.4 C143.4,201.6 153.9,198.3 164.4,194.7 C168.3,193.5 171.6,191.7 172.5,189.9 L170.1,189 C158.7,184.8 141,187.8 130.5,193.8 C126.3,196.2 122.1,201.6 118.2,202.8 C117,203.1 116.7,203.1 116.4,202.5 C115.2,201 121.2,194.7 121.2,194.1 C135.6,178.2 150.6,171.6 172.5,171.6 C177.9,171.6 189.6,171 193.5,176.1 C197.4,180.9 191.4,188.4 188.1,191.7 C182.7,197.7 173.4,203.1 166.2,206.1 C152.4,212.1 137.7,213.9 124.8,222 C122.1,223.8 117.6,228.3 114.6,232.2 C113.1,234.3 112.2,236.1 110.7,236.4 C109.8,236.7 108.9,234.9 109.2,234.3 Z M111.6,185.4 L113.4,162 C122.7,154.2 138.9,140.4 151.2,139.2 C157.2,138.6 162.3,139.8 168.3,141.9 C171,139.8 171,134.4 169.5,131.7 C166.5,125.7 162,130.5 157.2,131.1 C153,132 147.9,129 150,123.6 C152.1,117.9 155.1,115.8 157.2,110.4 C159.6,103.8 172.2,100.5 175.5,106.8 C175.5,106.8 175.8,106.8 176.1,106.8 C177.6,104.4 176.1,96.9 175.5,93.6 C174.9,91.5 173.1,88.2 173.7,85.8 C175.2,80.7 180.3,80.1 182.7,75.3 C189,75.3 189,97.2 185.7,104.7 C184.2,107.4 180.9,111 180.9,113.7 C180.9,130.5 179.1,150 166.2,162.9 C164.4,164.7 159.6,166.5 156,164.4 C147.9,160.2 141,162.3 133.5,167.1 C126.6,171.9 119.7,180.3 111.9,184.8 L111.6,185.4 Z M145.2,66.3 C144.9,65.4 144.9,64.8 145.8,63.9 C150.3,59.4 156.6,54.6 162.6,48.6 C165.6,53.1 171.9,57.6 175.5,61.8 C177.9,64.5 177.3,67.8 173.4,71.7 C171,74.1 168.9,76.5 165.3,78 C162,79.2 159.6,79.8 157.5,77.7 C153.9,74.1 148.8,71.1 145.2,66.3 Z M187.8,64.8 C187.2,63.9 187.2,63 188.1,62.4 C193.5,58.5 198.6,53.1 205.2,47.1 C207.9,51.3 213.9,56.1 218.4,60.3 C220.8,63 219.9,66.9 216,69.9 C213.3,72.3 211.2,74.7 207.9,76.5 C204.6,78.3 202.2,78.3 200.1,76.2 C196.5,72.9 191.4,69.6 187.8,64.8 Z M166.8,39.6 C166.2,39 166.2,38.1 167.1,37.5 C172.5,33.3 177.6,27.9 184.2,21.9 C186.9,26.4 192.9,30.9 197.1,35.4 C199.8,37.8 198.6,41.7 194.7,45 C192.3,47.1 190.2,49.8 186.9,51.6 C183.6,53.1 180.9,53.4 178.8,51.3 C175.5,47.7 170.4,44.7 166.8,39.6 Z" fill="#888888"></path></svg>